<svg width="17" height="18" viewBox="0 0 17 18" fill="none" xmlns="http://www.w3.org/2000/svg">
<path d="M10.6017 16.832H6.39648C6.32189 16.832 6.25035 16.8024 6.19761 16.7497C6.14487 16.6969 6.11523 16.6254 6.11523 16.5508C6.11523 16.4762 6.14487 16.4047 6.19761 16.3519C6.25035 16.2992 6.32189 16.2695 6.39648 16.2695H10.6017C10.6763 16.2695 10.7479 16.2992 10.8006 16.3519C10.8534 16.4047 10.883 16.4762 10.883 16.5508C10.883 16.6254 10.8534 16.6969 10.8006 16.7497C10.7479 16.8024 10.6763 16.832 10.6017 16.832ZM10.6017 17.9998H6.39648C6.32189 17.9998 6.25035 17.9701 6.19761 17.9174C6.14487 17.8647 6.11523 17.7931 6.11523 17.7185C6.11523 17.6439 6.14487 17.5724 6.19761 17.5197C6.25035 17.4669 6.32189 17.4373 6.39648 17.4373H10.6017C10.6763 17.4373 10.7479 17.4669 10.8006 17.5197C10.8534 17.5724 10.883 17.6439 10.883 17.7185C10.883 17.7931 10.8534 17.8647 10.8006 17.9174C10.7479 17.9701 10.6763 17.9998 10.6017 17.9998Z" fill="#495670"/>
<path d="M13.4294 8.62311C13.4332 9.56324 13.1695 10.485 12.669 11.2809C12.1685 12.0767 11.4519 12.7137 10.6029 13.1175V15.4519H6.39536L6.39254 13.1175C5.58487 12.7444 4.89246 12.1609 4.38794 11.4281C3.88342 10.6953 3.58538 9.84026 3.52508 8.95263C3.46477 8.065 3.64442 7.1775 4.04519 6.3832C4.44596 5.58891 5.05308 4.91709 5.80287 4.43821C6.55267 3.95932 7.41751 3.69102 8.30669 3.66143C9.19587 3.63185 10.0766 3.84208 10.8566 4.27007C11.6366 4.69806 12.287 5.32804 12.7397 6.09394C13.1923 6.85984 13.4306 7.73344 13.4294 8.62311Z" fill="#F9B534"/>
<path d="M13.4303 8.6231C13.4345 7.4017 12.9871 6.22186 12.1739 5.31047C11.3608 4.39909 10.2394 3.82052 9.02537 3.68604C7.95568 3.81175 6.95545 4.28045 6.17433 5.022C5.39321 5.76355 4.87319 6.7381 4.69209 7.79982C4.51099 8.86154 4.67854 9.95336 5.16966 10.9119C5.66079 11.8705 6.44909 12.6443 7.41662 13.1175L7.41944 15.4518H10.6037V13.1175C11.4528 12.7137 12.1694 12.0767 12.6699 11.2809C13.1704 10.485 13.4341 9.56323 13.4303 8.6231Z" fill="#F9CB4E"/>
<path d="M8.3978 10.2039V15.452H7.8353V10.308L6.55281 8.82577C6.52861 8.7977 6.51019 8.76514 6.49858 8.72995C6.48697 8.69476 6.48241 8.65763 6.48515 8.62067C6.48789 8.58372 6.49789 8.54767 6.51456 8.51457C6.53124 8.48148 6.55427 8.452 6.58234 8.42781C6.63903 8.37895 6.7128 8.35461 6.78744 8.36015C6.82439 8.36289 6.86044 8.37289 6.89354 8.38956C6.92663 8.40624 6.95611 8.42927 6.98031 8.45734L8.3303 10.0211C8.37457 10.0716 8.39861 10.1367 8.3978 10.2039ZM10.6028 8.82577L9.3203 10.308V15.452H8.7578V10.2039C8.75831 10.137 8.78218 10.0723 8.82531 10.0211L10.1753 8.45734C10.2242 8.40065 10.2935 8.36569 10.3682 8.36015C10.4428 8.35461 10.5166 8.37895 10.5733 8.42781C10.63 8.47666 10.6649 8.54604 10.6705 8.62067C10.676 8.69531 10.6517 8.76908 10.6028 8.82577Z" fill="#EAEAE8"/>
<path d="M1.44605 4.54247L2.91727 5.4C2.94919 5.41944 2.98467 5.43233 3.02163 5.4379C3.05859 5.44348 3.09629 5.44163 3.13252 5.43247C3.16876 5.4233 3.20281 5.40701 3.23268 5.38453C3.26254 5.36206 3.28763 5.33386 3.30647 5.30157C3.32531 5.26929 3.33753 5.23358 3.34241 5.19652C3.34729 5.15946 3.34474 5.1218 3.3349 5.08574C3.32505 5.04969 3.30812 5.01595 3.28509 4.98651C3.26206 4.95707 3.23339 4.93251 3.20077 4.91428L1.72955 4.05647C1.6651 4.01887 1.58836 4.00842 1.5162 4.02741C1.44405 4.0464 1.38239 4.09327 1.3448 4.15772C1.3072 4.22217 1.29675 4.29891 1.31574 4.37106C1.33473 4.44322 1.3816 4.50487 1.44605 4.54247ZM13.9946 5.43853C14.044 5.43836 14.0925 5.42517 14.1352 5.40028L15.607 4.54247C15.6714 4.50491 15.7183 4.44329 15.7373 4.37116C15.7563 4.29903 15.7459 4.22231 15.7084 4.15786C15.6708 4.09341 15.6092 4.04652 15.5371 4.02751C15.4649 4.00849 15.3882 4.01891 15.3238 4.05647L13.8517 4.91456C13.7985 4.9457 13.757 4.99346 13.7336 5.05049C13.7102 5.10751 13.7062 5.17065 13.7221 5.23019C13.7381 5.28972 13.7732 5.34236 13.822 5.38001C13.8709 5.41765 13.9307 5.43821 13.9923 5.43853H13.9946ZM8.52764 0C8.45305 0 8.38151 0.0296316 8.32877 0.0823762C8.27602 0.135121 8.24639 0.206658 8.24639 0.28125V1.97072C8.24639 2.04531 8.27602 2.11685 8.32877 2.16959C8.38151 2.22234 8.45305 2.25197 8.52764 2.25197C8.60223 2.25197 8.67377 2.22234 8.72651 2.16959C8.77926 2.11685 8.80889 2.04531 8.80889 1.97072V0.28125C8.80889 0.206658 8.77926 0.135121 8.72651 0.0823762C8.67377 0.0296316 8.60223 0 8.52764 0ZM15.5701 12.1241L14.1358 11.2882C14.0713 11.2507 13.9946 11.2402 13.9224 11.2592C13.8503 11.2782 13.7886 11.3251 13.751 11.3895C13.7134 11.4539 13.703 11.5307 13.722 11.6028C13.7409 11.675 13.7878 11.7367 13.8523 11.7743L15.2866 12.6098C15.3186 12.6293 15.354 12.6422 15.391 12.6477C15.428 12.6533 15.4657 12.6515 15.5019 12.6423C15.5381 12.6331 15.5722 12.6169 15.602 12.5944C15.6319 12.5719 15.657 12.5437 15.6758 12.5114C15.6947 12.4791 15.7069 12.4434 15.7118 12.4064C15.7167 12.3693 15.7141 12.3316 15.7043 12.2956C15.6944 12.2595 15.6775 12.2258 15.6545 12.1964C15.6314 12.1669 15.6028 12.1424 15.5701 12.1241ZM4.77436 1.20684C4.75653 1.17386 4.73229 1.14477 4.70306 1.12129C4.67383 1.09781 4.64019 1.08041 4.60414 1.07012C4.56809 1.05983 4.53034 1.05685 4.49311 1.06136C4.45589 1.06586 4.41995 1.07777 4.38739 1.09637C4.35484 1.11497 4.32633 1.1399 4.30355 1.16968C4.28077 1.19946 4.26417 1.23349 4.25474 1.26978C4.2453 1.30607 4.24321 1.34387 4.2486 1.38098C4.25399 1.41809 4.26674 1.45374 4.28611 1.48584L5.12452 2.95312C5.14236 2.98628 5.16667 3.01551 5.19602 3.03909C5.22537 3.06267 5.25915 3.08012 5.29537 3.0904C5.33159 3.10069 5.3695 3.10359 5.40686 3.09895C5.44422 3.09431 5.48027 3.08221 5.51287 3.06338C5.54547 3.04455 5.57396 3.01936 5.59664 2.98931C5.61933 2.95927 5.63575 2.92497 5.64493 2.88846C5.65412 2.85195 5.65588 2.81397 5.65011 2.77676C5.64434 2.73956 5.63117 2.70389 5.61136 2.67188L4.77436 1.20684ZM16.4895 8.06794H14.8403C14.7657 8.06794 14.6942 8.09757 14.6414 8.15031C14.5887 8.20306 14.559 8.2746 14.559 8.34919C14.559 8.42378 14.5887 8.49532 14.6414 8.54806C14.6942 8.60081 14.7657 8.63044 14.8403 8.63044H16.4895C16.5641 8.63044 16.6357 8.60081 16.6884 8.54806C16.7412 8.49532 16.7708 8.42378 16.7708 8.34919C16.7708 8.2746 16.7412 8.20306 16.6884 8.15031C16.6357 8.09757 16.5641 8.06794 16.4895 8.06794ZM12.6575 1.13063C12.6255 1.11225 12.5901 1.10036 12.5535 1.09565C12.5169 1.09093 12.4797 1.09348 12.444 1.10314C12.4084 1.11281 12.375 1.1294 12.3457 1.15197C12.3165 1.17454 12.292 1.20265 12.2736 1.23469L11.4425 2.6865C11.4242 2.71856 11.4123 2.75392 11.4076 2.79056C11.4029 2.82721 11.4055 2.86441 11.4152 2.90006C11.4347 2.97206 11.4821 3.03333 11.5469 3.07041C11.5789 3.08876 11.6143 3.10062 11.6509 3.10532C11.6876 3.11001 11.7248 3.10743 11.7604 3.09774C11.8324 3.07818 11.8937 3.03081 11.9308 2.96606L12.7619 1.51425C12.7989 1.44953 12.8087 1.37277 12.7891 1.30084C12.7695 1.22891 12.7222 1.16768 12.6575 1.13063ZM2.91755 11.2882L1.48317 12.1241C1.42983 12.1552 1.38821 12.203 1.3647 12.2601C1.3412 12.3171 1.33714 12.3804 1.35313 12.44C1.36912 12.4996 1.40429 12.5523 1.4532 12.59C1.50212 12.6276 1.56207 12.6482 1.6238 12.6484C1.67326 12.6483 1.72181 12.635 1.76442 12.6098L3.1988 11.7743C3.26324 11.7367 3.31012 11.675 3.32911 11.6028C3.34809 11.5307 3.33764 11.4539 3.30005 11.3895C3.26245 11.3251 3.2008 11.2782 3.12864 11.2592C3.05649 11.2402 2.97974 11.2507 2.9153 11.2882H2.91755ZM2.49511 8.34778C2.49511 8.27319 2.46548 8.20165 2.41273 8.14891C2.35999 8.09616 2.28845 8.06653 2.21386 8.06653H0.509766C0.435173 8.06653 0.363636 8.09616 0.310892 8.14891C0.258147 8.20165 0.228516 8.27319 0.228516 8.34778C0.228516 8.42237 0.258147 8.49391 0.310892 8.54666C0.363636 8.5994 0.435173 8.62903 0.509766 8.62903H2.21386C2.28845 8.62903 2.35999 8.5994 2.41273 8.54666C2.46548 8.49391 2.49511 8.42237 2.49511 8.34778Z" fill="#F4991E"/>
</svg>